<?xml version="1.0" standalone="no"?>
<!DOCTYPE svg PUBLIC "-//W3C//DTD SVG 20010904//EN"
 "http://www.w3.org/TR/2001/REC-SVG-20010904/DTD/svg10.dtd">
<svg version="1.0" xmlns="http://www.w3.org/2000/svg"
 width="97.000000pt" height="58.000000pt" viewBox="0 0 97.000000 58.000000"
 preserveAspectRatio="xMidYMid meet">

<g transform="translate(0.000000,58.000000) scale(0.100000,-0.100000)"
fill="#000000" stroke="none">
<path d="M274 551 c-44 -20 -109 -88 -130 -138 -8 -18 -14 -64 -14 -103 0 -68
-1 -71 -27 -81 -40 -15 -81 -57 -88 -91 -9 -40 16 -75 73 -101 45 -21 59 -22
404 -22 l356 0 26 24 c32 30 32 32 0 70 l-26 31 32 0 c34 0 80 38 80 67 0 9
-25 41 -56 70 -71 66 -130 87 -241 86 l-81 0 -22 58 c-44 122 -173 181 -286
130z m137 -1 c56 -16 106 -67 132 -135 l23 -60 85 -1 c111 -1 172 -22 237 -82
29 -27 52 -56 52 -65 0 -26 -37 -57 -68 -57 -41 0 -45 -9 -17 -42 30 -36 31
-40 4 -64 -20 -18 -41 -19 -373 -19 -338 0 -353 1 -398 22 -25 11 -51 31 -58
43 -24 44 8 100 75 131 28 13 30 18 32 74 5 98 12 122 54 175 62 78 133 104
220 80z"/>
</g>
</svg>
